<?xml version="1.0" encoding="UTF-8"?>
<svg xmlns="http://www.w3.org/2000/svg" viewBox="0 0 700 320" width="700" height="320">
  <defs>
    <linearGradient id="reqGrad" x1="0%" y1="0%" x2="100%" y2="0%">
      <stop offset="0%" style="stop-color:#f59e0b;stop-opacity:1" />
      <stop offset="100%" style="stop-color:#d97706;stop-opacity:1" />
    </linearGradient>
    <linearGradient id="authGrad" x1="0%" y1="0%" x2="100%" y2="0%">
      <stop offset="0%" style="stop-color:#6366f1;stop-opacity:1" />
      <stop offset="100%" style="stop-color:#4f46e5;stop-opacity:1" />
    </linearGradient>
    <linearGradient id="chkGrad" x1="0%" y1="0%" x2="100%" y2="0%">
      <stop offset="0%" style="stop-color:#8b5cf6;stop-opacity:1" />
      <stop offset="100%" style="stop-color:#7c3aed;stop-opacity:1" />
    </linearGradient>
    <linearGradient id="dbGrad" x1="0%" y1="0%" x2="100%" y2="0%">
      <stop offset="0%" style="stop-color:#0ea5e9;stop-opacity:1" />
      <stop offset="100%" style="stop-color:#0284c7;stop-opacity:1" />
    </linearGradient>
    <marker id="arrow" markerWidth="10" markerHeight="7" refX="10" refY="3.5" orient="auto">
      <polygon points="0 0, 10 3.5, 0 7" fill="#64748b" />
    </marker>
  </defs>
  <rect width="700" height="320" fill="#f8fafc" rx="8"/>
  <rect x="20" y="20" width="140" height="50" rx="6" fill="url(#reqGrad)" stroke="#b45309" stroke-width="2"/>
  <text x="90" y="42" text-anchor="middle" fill="white" font-family="system-ui" font-size="12" font-weight="bold">Request</text>
  <line x1="160" y1="45" x2="190" y2="45" stroke="#64748b" stroke-width="2" marker-end="url(#arrow)"/>
  <rect x="190" y="20" width="150" height="50" rx="6" fill="url(#authGrad)" stroke="#4338ca" stroke-width="2"/>
  <text x="265" y="42" text-anchor="middle" fill="white" font-family="system-ui" font-size="12" font-weight="bold">auth middleware</text>
  <line x1="340" y1="45" x2="370" y2="45" stroke="#64748b" stroke-width="2" marker-end="url(#arrow)"/>
  <rect x="370" y="20" width="170" height="50" rx="6" fill="url(#chkGrad)" stroke="#6d28d9" stroke-width="2"/>
  <text x="455" y="42" text-anchor="middle" fill="white" font-family="system-ui" font-size="12" font-weight="bold">dynamicAccess()</text>
  <line x1="540" y1="45" x2="570" y2="45" stroke="#64748b" stroke-width="2" marker-end="url(#arrow)"/>
  <rect x="570" y="20" width="110" height="50" rx="6" fill="url(#dbGrad)" stroke="#0369a1" stroke-width="2"/>
  <text x="625" y="42" text-anchor="middle" fill="white" font-family="system-ui" font-size="11" font-weight="bold">checkUser</text>
  <polygon points="355,120 415,150 355,180 295,150" fill="#fbbf24" stroke="#f59e0b" stroke-width="2"/>
  <text x="355" y="155" text-anchor="middle" fill="#78350f" font-family="system-ui" font-size="11" font-weight="bold">SUPER?</text>
  <line x1="355" y1="180" x2="355" y2="210" stroke="#10b981" stroke-width="2" marker-end="url(#arrow)"/>
  <rect x="285" y="210" width="140" height="45" rx="6" fill="#10b981" stroke="#059669" stroke-width="2"/>
  <text x="355" y="237" text-anchor="middle" fill="white" font-family="system-ui" font-size="12" font-weight="bold">ALLOW</text>
  <line x1="415" y1="150" x2="500" y2="150" stroke="#ef4444" stroke-width="2" marker-end="url(#arrow)"/>
  <text x="455" y="143" fill="#dc2626" font-family="system-ui" font-size="10" font-weight="bold">NO</text>
  <rect x="500" y="130" width="120" height="40" rx="6" fill="url(#dbGrad)" stroke="#0369a1" stroke-width="2"/>
  <text x="560" y="155" text-anchor="middle" fill="white" font-family="system-ui" font-size="11">DB Lookup</text>
</svg>